<svg xmlns="http://www.w3.org/2000/svg" viewBox="0 0 237.61 237.61"><defs><style>.cls-1{fill:#fff;}</style></defs><g id="Layer_2" data-name="Layer 2"><g id="Layer_2-2" data-name="Layer 2"><path class="cls-1" d="M236,39.73,197.88,1.59a5.41,5.41,0,0,0-7.66,0L122.64,69.17a5.41,5.41,0,0,1-7.66,0L47.39,1.59a5.41,5.41,0,0,0-7.66,0L1.59,39.73a5.41,5.41,0,0,0,0,7.66L69.17,115a5.41,5.41,0,0,1,0,7.66L1.59,190.22a5.41,5.41,0,0,0,0,7.66L39.73,236a5.43,5.43,0,0,0,7.66,0L115,168.44a5.41,5.41,0,0,1,7.66,0L190.22,236a5.43,5.43,0,0,0,7.66,0L236,197.88a5.43,5.43,0,0,0,0-7.66l-67.59-67.58a5.41,5.41,0,0,1,0-7.66L236,47.39A5.43,5.43,0,0,0,236,39.73Z"/></g></g></svg>