<svg xmlns="http://www.w3.org/2000/svg" viewBox="0 0 356.32 237.64"><defs><style>.cls-1{fill:#fff;}</style></defs><g id="Layer_2" data-name="Layer 2"><g id="Layer_2-2" data-name="Layer 2"><path class="cls-1" d="M356.32,146.14V91.69a5.16,5.16,0,0,0-5.16-5.16H115.86l39.21-39.22a5.14,5.14,0,0,0,0-7.29L116.57,1.51a5.17,5.17,0,0,0-7.3,0L1.51,109.27a5.17,5.17,0,0,0-.18,7.11l108,119.55a5.15,5.15,0,0,0,7.48.19l38.31-38.31a5.15,5.15,0,0,0,0-7.3L115.86,151.3h235.3A5.16,5.16,0,0,0,356.32,146.14Z"/></g></g></svg>